<svg width="264" height="113" viewBox="0 0 264 113" fill="none" xmlns="http://www.w3.org/2000/svg">
<rect width="264" height="113" fill="#F5F5F5"/>
<path d="M52 2C49.0115 2 44.7314 1.08959 42.5556 3.55555C40.1204 6.31541 38.1056 5.24935 35.2222 7C31.2921 9.38612 26 13.0723 26 18C26 22.6195 27.376 28.8034 32.2222 30.7778C38.2555 33.2358 43.5639 38 50.3889 38C55.984 38 70.5211 51.527 63.9445 57.5556C58.1337 62.8821 53.5152 70.2146 46.0556 73.9444C36.3172 78.8136 28.3943 82.7517 17.2222 83C13.0014 83.0938 6.07228 83.3595 3.77778 79C1.21234 74.1256 2.80449 64.2522 3.00001 58.7778C3.25211 51.7189 11.9346 51 17 51C26.1412 51 33.1583 56.0314 40.4445 60.8889C43.5226 62.941 49.0041 64.2686 49.9445 68.5C50.9309 72.9389 51.5851 74.8003 56.7778 75C60.6826 75.1502 65.3776 76 69.7778 76C74.8728 76 75 75.3925 75 70.5C75 67.037 75 63.5741 75 60.1111C75 56.6752 75.4385 67.3624 77.5 70.1111C79.4431 72.7018 82.9776 81.7396 88.5 77.4444C91.6512 74.9935 95 70.8495 95 67C95 63.3333 95 59.6667 95 56C95 55.2715 94.4197 61.886 95.2222 62.7778C98.8602 66.82 95.8336 69 103 69C106.032 69 110 70.2855 110 66.5C110 56.1 113 87.1555 113 97.5556C113 103.393 107.414 105.198 102.556 107.5C94.8329 111.158 83.7162 113.168 75.6667 108.778C71.7095 106.619 64.5332 105.45 62 101.333C58.5824 95.7798 68.3113 92.1397 72.6111 90.5556C80.3766 87.6946 86.7372 87 94.9445 87C101.387 87 106.644 84 113 84" stroke="black" stroke-width="3" stroke-linecap="round"/>
<path d="M111 34C111 36.9058 110.098 39.7718 110 42.2222C109.859 45.7595 109.302 46.8398 111.222 43C111.881 41.6833 114.194 38.0702 113 38C110.147 37.8322 108.788 39.2125 107 41" stroke="black" stroke-width="3" stroke-linecap="round"/>
<path d="M133 56C127.831 56 116.571 61.2515 115.056 66.5556C113.127 73.3053 117.419 77.1342 123 79.7778C135.761 85.8226 131.014 64.7826 133.444 58.7778C134.737 55.5853 134.539 53.8905 135 50.6667C135.162 49.5348 135.469 53.1816 136.444 53.7778C138.145 54.8173 138.67 54.4374 139.056 56.5556C139.444 58.6898 142.465 61.8181 143.556 64C144.526 65.9413 146.853 68 149 68C155.628 68 161.072 66.2403 163.556 59.5C164.667 56.4821 166.356 52.4381 168.5 50.0556C171.363 46.8743 170.1 39.432 170 35.4444C169.909 31.7855 167.113 26.742 165.778 23.2222C164.275 19.2615 161.263 18.1709 158.889 15.5C155.559 11.7537 147 9.30822 147 16C147 19.9067 150.429 23.335 152.444 26.4444C155.431 31.0521 157.75 36.5045 160.056 41.5C162.312 46.3889 169.292 51.4237 174 53.7778C180.019 56.7873 189.438 55 196.056 55C205.093 55 214.192 55.3225 223.222 55C231.651 54.699 239.266 50 248 50C252.352 50 257.962 49.6152 262 48" stroke="black" stroke-width="3" stroke-linecap="round"/>
</svg>
